<?xml version="1.0" encoding="UTF-8" standalone="no"?>
<!-- Created with Inkscape (http://www.inkscape.org/) -->

<svg
   width="44.35907"
   height="86.158226"
   viewBox="0 0 44.359069 86.158224"
   version="1.1"
   id="svg1"
   inkscape:version="1.4 (86a8ad7, 2024-10-11)"
   sodipodi:docname="brand.svg"
   xmlns:inkscape="http://www.inkscape.org/namespaces/inkscape"
   xmlns:sodipodi="http://sodipodi.sourceforge.net/DTD/sodipodi-0.dtd"
   xmlns="http://www.w3.org/2000/svg"
   xmlns:svg="http://www.w3.org/2000/svg">
  <sodipodi:namedview
     id="namedview1"
     pagecolor="#ffffff"
     bordercolor="#000000"
     borderopacity="0.25"
     inkscape:showpageshadow="2"
     inkscape:pageopacity="0.0"
     inkscape:pagecheckerboard="0"
     inkscape:deskcolor="#d1d1d1"
     inkscape:document-units="px"
     inkscape:zoom="3.3424639"
     inkscape:cx="8.3770537"
     inkscape:cy="37.846332"
     inkscape:window-width="1366"
     inkscape:window-height="715"
     inkscape:window-x="-8"
     inkscape:window-y="-8"
     inkscape:window-maximized="1"
     inkscape:current-layer="g1">
    <inkscape:page
       x="0"
       y="0"
       width="44.35907"
       height="86.158226"
       id="page2"
       margin="0"
       bleed="0" />
  </sodipodi:namedview>
  <defs
     id="defs1">
    <inkscape:path-effect
       effect="perspective-envelope"
       up_left_point="201.34,219.43123"
       up_right_point="216.17477,219.43123"
       down_left_point="201.34337,248.23813"
       down_right_point="216.17477,248.23813"
       id="path-effect2"
       is_visible="true"
       lpeversion="1"
       deform_type="perspective"
       horizontal_mirror="false"
       vertical_mirror="false"
       overflow_perspective="false" />
    <inkscape:path-effect
       effect="rough_hatches"
       id="path-effect1"
       is_visible="true"
       lpeversion="1.2"
       direction="208.75907,228.83468 , 3.7078499,0"
       dist_rdm="75;1"
       growth="0"
       do_bend="true"
       bender="208.75907,233.83468 , 5,0"
       bottom_edge_variation="2.8806894;1"
       top_edge_variation="2.8806894;1"
       bottom_tgt_variation="0;1"
       top_tgt_variation="0;1"
       scale_bf="1"
       scale_bb="1"
       scale_tf="1"
       scale_tb="1"
       top_smth_variation="0;1"
       bottom_smth_variation="0;1"
       fat_output="true"
       stroke_width_top="1"
       stroke_width_bottom="1"
       front_thickness="1"
       back_thickness="0.25" />
  </defs>
  <g
     inkscape:label="Layer 1"
     inkscape:groupmode="layer"
     id="layer1"
     transform="translate(142.06005,-138.1337)">
    <g
       id="g1"
       transform="matrix(2.990889,0,0,2.990889,-637.05936,-248.02595)"
       inkscape:export-filename="..\logo.svg"
       inkscape:export-xdpi="96"
       inkscape:export-ydpi="96">
      <g
         id="g58"
         transform="translate(-35.840967,-90.319237)"
         inkscape:label="brand"
         style="fill:#4dae4a;fill-opacity:1">
        <g
           id="g29"
           inkscape:label="light-s"
           style="display:inline;fill:#4dae4a;fill-opacity:1"
           transform="translate(10.591531,43.824853)">
          <path
             d="m 193.02481,194.37815 c 0.14286,1.01291 0.35204,1.99461 0.69939,2.91641 0.0179,0.0476 0.0456,0.0861 0.064,0.13322 -0.35225,-0.91681 -0.47692,-1.93407 -0.56683,-2.96343 z"
             style="-inkscape-font-specification:'Inter 24pt';display:inline;fill:#4dae4a;fill-opacity:1"
             id="path28" />
          <path
             d="m 204.69045,196.23405 c 0.26242,0.75444 0.4653,1.53525 0.46495,2.37832 -4.8e-4,1.18148 -0.24066,2.24248 -0.83848,3.09272 l -0.003,0.006 -0.003,0.005 c -0.58628,0.81565 -1.50563,1.35692 -2.50631,1.49804 h -0.007 l -0.006,10e-4 c -1.00725,0.1314 -2.05143,-0.10052 -3.1293,-0.57728 -1.08459,-0.47972 -2.05818,-1.16452 -2.89486,-2.03286 l -0.001,-10e-4 -0.001,-0.002 c -0.79294,-0.8288 -1.3974,-1.82946 -1.86177,-2.93143 0.54393,1.31896 1.24202,2.50229 2.1491,3.52699 7.5e-4,7.5e-4 8.3e-4,7.8e-4 10e-4,0.001 1.00006,1.11029 2.1695,1.95901 3.54266,2.569 1.35929,0.60379 2.41653,0.74423 3.19198,0.58511 0.81811,-0.1751 1.33946,-0.5507 1.79125,-1.32368 l 0.001,-0.005 0.003,-0.005 c 0.46008,-0.77215 0.73857,-1.88045 0.73857,-3.37548 0,-1.06629 -0.14119,-2.03551 -0.41336,-2.91968 l -0.001,-0.004 -0.001,-0.005 c -0.0523,-0.17443 -0.15593,-0.3136 -0.21681,-0.48193 z"
             style="-inkscape-font-specification:'Inter 24pt';display:inline;fill:#4dae4a;fill-opacity:1"
             id="path27" />
          <path
             d="m 194.2205,184.20011 c 0.11155,0.25111 0.16719,0.52075 0.30235,0.76469 0,7.5e-4 0.002,7.6e-4 0.002,0.001 0.81187,1.43968 2.08537,2.8909 3.86003,4.32825 v -0.002 l 2.33391,1.88789 0.006,0.005 c 0.89772,0.71697 1.67123,1.43834 2.3202,2.17196 0.50347,0.56916 0.83934,1.19692 1.17218,1.82521 -0.15409,-0.31577 -0.2496,-0.66983 -0.43492,-0.96583 l -0.003,-0.008 -0.005,-0.006 c -0.4833,-0.79353 -1.04368,-1.52332 -1.68415,-2.19416 l -0.005,-0.005 -0.006,-0.006 c -0.64883,-0.69702 -1.34158,-1.3391 -2.0825,-1.92904 l -0.005,-0.005 -2.15759,-1.74684 c -0.79867,-0.6326 -1.51707,-1.29415 -2.15433,-1.98585 -0.60319,-0.6547 -1.07243,-1.37683 -1.46017,-2.13147 z"
             style="-inkscape-font-specification:'Inter 24pt';display:inline;fill:#4dae4a;fill-opacity:1"
             id="path26" />
          <path
             d="m 204.33978,183.12196 c 0.12064,0.45805 0.19155,0.93777 0.25076,1.42295 l 0.0993,0.0424 c -0.0816,-0.50151 -0.21082,-0.98565 -0.35002,-1.46539 z"
             style="-inkscape-font-specification:'Inter 24pt';display:inline;fill:#4dae4a;fill-opacity:1"
             id="path25" />
          <path
             d="m 196.36047,175.60826 c -0.21085,0.006 -0.40828,0.0308 -0.59295,0.0725 l -0.007,0.001 -0.007,0.002 c -0.74853,0.15968 -1.24699,0.51289 -1.70179,1.2512 -0.43259,0.72006 -0.70674,1.80724 -0.71049,3.30561 -0.002,0.67988 0.0846,1.32063 0.22399,1.94014 -0.066,-0.34896 -0.11032,-0.70378 -0.10971,-1.06966 0.002,-1.08764 0.21417,-2.07025 0.75294,-2.87004 l 0.002,-10e-4 10e-4,-0.001 c 0.52867,-0.77867 1.35791,-1.33194 2.28167,-1.51436 l 0.005,-0.001 h 0.006 c 0.95835,-0.18114 1.95642,0.008 2.96212,0.43949 1.50761,0.64621 2.76082,1.73203 3.6909,3.16717 0.41338,0.62791 0.71209,1.32102 0.96321,2.03613 -0.0368,-0.10179 -0.052,-0.21128 -0.0914,-0.31214 l -0.001,-0.002 v -0.003 c -0.54125,-1.3945 -1.2754,-2.59161 -2.20722,-3.61906 l -0.003,-0.003 -0.003,-0.005 c -0.91357,-1.02432 -1.96023,-1.77781 -3.17305,-2.29539 -0.59836,-0.25535 -1.13185,-0.40957 -1.6084,-0.47801 l 6.5e-4,6.5e-4 c -0.23827,-0.0342 -0.46242,-0.0476 -0.67326,-0.0418 z"
             style="-inkscape-font-specification:'Inter 24pt';display:inline;fill:#4dae4a;fill-opacity:1"
             id="path24" />
        </g>
        <g
           id="g57"
           inkscape:label="k"
           transform="rotate(-14.938299,180.67989,483.50672)"
           style="fill:#4dae4a;fill-opacity:1">
          <path
             d="m 272.00249,244.12446 c -0.10266,0.19929 -0.20971,0.39726 -0.31149,0.59687 l -0.004,0.007 c -0.0259,0.0516 -0.0511,0.10442 -0.0771,0.15607 l 6.36242,9.40813 0.67915,-0.30692 z"
             style="-inkscape-font-specification:'Inter 24pt';fill:#4dae4a;fill-opacity:1"
             id="path57" />
          <path
             d="m 268.0543,236.8145 -0.19395,0.0829 v 21.97559 l 0.19395,-0.0875 v -7.52219 l 1.61036,-3.06987 -1.6293,-0.37549 0.0189,-4.18001 z"
             style="-inkscape-font-specification:'Inter 24pt';fill:#4dae4a;fill-opacity:1"
             id="path56" />
        </g>
      </g>
    </g>
  </g>
</svg>
