<?xml version="1.0" encoding="UTF-8" standalone="no"?>
<!-- Created with Inkscape (http://www.inkscape.org/) -->

<svg
   width="512.0014"
   height="379.13425"
   viewBox="0 0 512.0014 379.13424"
   version="1.1"
   id="svg1"
   inkscape:version="1.4 (86a8ad7, 2024-10-11)"
   sodipodi:docname="logo-dark.svg"
   xmlns:inkscape="http://www.inkscape.org/namespaces/inkscape"
   xmlns:sodipodi="http://sodipodi.sourceforge.net/DTD/sodipodi-0.dtd"
   xmlns="http://www.w3.org/2000/svg"
   xmlns:svg="http://www.w3.org/2000/svg">
  <sodipodi:namedview
     id="namedview1"
     pagecolor="#ffffff"
     bordercolor="#000000"
     borderopacity="0.25"
     inkscape:showpageshadow="2"
     inkscape:pageopacity="0.0"
     inkscape:pagecheckerboard="0"
     inkscape:deskcolor="#d1d1d1"
     inkscape:document-units="px"
     inkscape:zoom="0.49204582"
     inkscape:cx="55.889104"
     inkscape:cy="415.6117"
     inkscape:window-width="1366"
     inkscape:window-height="715"
     inkscape:window-x="-8"
     inkscape:window-y="-8"
     inkscape:window-maximized="1"
     inkscape:current-layer="g1">
    <inkscape:page
       x="0"
       y="0"
       width="512.0014"
       height="379.13425"
       id="page2"
       margin="0"
       bleed="0" />
  </sodipodi:namedview>
  <defs
     id="defs1" />
  <g
     inkscape:label="Layer 1"
     inkscape:groupmode="layer"
     id="layer1"
     transform="translate(0.00137849,-43.855112)">
    <g
       id="g1"
       transform="matrix(2.990889,0,0,2.990889,-637.05936,-248.02595)"
       inkscape:export-filename="..\logo.svg"
       inkscape:export-xdpi="96"
       inkscape:export-ydpi="96">
      <path
         d="m 292.69992,114.7496 a 22.500425,22.500425 0 0 0 -7.25837,1.86047 l -36.01497,16.0063 a 4.444546,4.444546 0 0 0 0,8.12297 l 36.01497,16.0076 a 22.49856,22.49856 0 0 0 18.27621,0 l 36.01498,-16.0076 a 4.4445435,4.4445435 0 0 0 0,-8.12297 l -36.01498,-16.0063 a 22.500425,22.500425 0 0 0 -11.01784,-1.86047 z m -6.15019,4.84675 c 0.29503,-0.003 0.60133,-7.6e-4 0.91816,0.007 2.58692,0.065 4.99029,0.48326 7.28776,1.2858 l 0.008,0.005 0.007,0.002 c 2.35509,0.80507 4.42074,1.9082 6.21483,3.34218 l 0.002,0.004 0.003,0.002 c 0.13075,0.10398 0.21675,0.22931 0.34284,0.33565 -0.86964,-0.7493 -1.82002,-1.44912 -2.96343,-2.01719 -2.56616,-1.29597 -5.56797,-2.02229 -8.81388,-2.11189 -2.1443,-0.0596 -4.14128,0.16002 -5.87265,0.79082 l -0.0111,0.003 -0.009,0.003 c -1.65493,0.61337 -2.94917,1.61198 -3.57139,2.73879 l -6.5e-4,0.002 -0.003,0.002 c -0.62989,1.15322 -0.56492,2.37977 -0.0588,3.64257 0.17064,0.42541 0.4202,0.81979 0.70788,1.19896 -0.55201,-0.66371 -1.01418,-1.37209 -1.32891,-2.16152 -0.69333,-1.7357 -0.69181,-3.10708 -0.22398,-4.12254 0.50136,-1.04762 1.2663,-1.67174 2.59316,-2.18307 l 0.0118,-0.005 0.0131,-0.004 c 0.32726,-0.12921 0.68706,-0.24444 1.08141,-0.34414 v -0.003 c 0.39499,-0.0996 0.82451,-0.18265 1.29169,-0.24815 l -0.002,-6.6e-4 c 0.7026,-0.0985 1.49128,-0.1551 2.37635,-0.16391 z m -12.27882,6.4212 6.31605,6.92402 3.9175,4.34262 3.16652,-0.7118 0.16783,4.31911 7.3622,8.07073 -0.25925,0.22138 -20.91443,-22.9486 z m 13.52937,4.69982 21.87045,5.808 -0.94949,0.81432 -20.86937,-5.55985 c -0.005,-0.0717 -0.0115,-0.14382 -0.0163,-0.2155 v -0.0104 c -0.016,-0.27816 -0.0211,-0.55814 -0.0353,-0.83652 z m -4.87875,0.20831 h 0.003 c 0.003,0.002 0.006,0.005 0.009,0.008 1.08996,0.72626 2.3234,1.38447 3.78494,1.91402 1.55842,0.56468 3.2682,1.06485 5.13147,1.5013 l 5.1171,1.24009 0.0124,0.004 c 1.7747,0.41922 3.49107,0.92356 5.15693,1.51567 l 0.015,0.005 0.0124,0.004 c 1.64566,0.56702 3.16793,1.24125 4.57313,2.02829 l 0.0137,0.005 0.0104,0.009 c 0.53646,0.29268 0.91864,0.69215 1.40269,1.02263 -1.01637,-0.64672 -2.03466,-1.28913 -3.36177,-1.79124 -1.70124,-0.64365 -3.63778,-1.2187 -5.8067,-1.73574 l -0.0144,-0.005 -5.57096,-1.35372 6.5e-4,0.002 c -4.16232,-1.01353 -7.31227,-2.2271 -9.54657,-3.59816 0,-2.8e-4 -0.004,2.2e-4 -0.004,-6.6e-4 -0.36845,-0.2298 -0.60171,-0.51952 -0.92665,-0.7673 -0.004,-0.003 -0.008,-0.005 -0.0118,-0.008 z m 26.77598,10.37526 c 0.21559,0.18565 0.50524,0.31839 0.70657,0.51524 l 0.005,0.006 0.004,0.005 c 1.03767,0.99742 1.84956,2.15483 2.41881,3.49042 0.80035,1.87781 0.8066,3.37498 0.25011,4.51371 l -0.004,0.007 6.5e-4,0.007 c -0.53768,1.13494 -1.43185,1.79193 -3.04962,2.298 -1.52879,0.46851 -3.78681,0.6566 -6.88223,0.37091 -3.09271,-0.28549 -5.86633,-0.93002 -8.4077,-1.94601 0,-2.1e-4 4e-5,-6.5e-4 -0.002,-0.001 -2.29332,-0.93476 -4.23848,-2.12615 -5.93795,-3.52633 1.4384,1.16573 3.10832,2.16672 5.07465,2.89943 l 0.003,0.002 0.002,6.5e-4 c 2.08735,0.77141 4.37189,1.27662 6.79472,1.49412 2.42884,0.21805 4.68213,0.1448 6.68698,-0.37026 l 0.0124,-0.003 0.0144,-0.002 c 2.00022,-0.52857 3.63138,-1.53427 4.42555,-2.76948 l 0.004,-0.007 0.003,-0.009 c 0.80194,-1.28598 0.74005,-2.70571 0.11102,-4.18524 -0.44787,-1.05345 -1.28622,-1.94919 -2.23204,-2.78645 z m -24.17955,2.11123 0.41663,0.0314 c 0.66846,1.19701 1.39969,2.37085 2.52328,3.34675 -0.0584,-0.0501 -0.13037,-0.0869 -0.18807,-0.13779 -1.11579,-0.98297 -1.99103,-2.08293 -2.75184,-3.24031 z"
         style="display:inline;fill:#1d293d;stroke-width:9.54565;fill-opacity:1"
         id="path58"
         inkscape:label="top-with-brand"
         inkscape:export-filename="logo.svg"
         inkscape:export-xdpi="96"
         inkscape:export-ydpi="96" />
      <path
         d="m 242.61553,164.14245 a 6.69012,6.69012 0 0 0 -7.43208,6.64844 v 18.99258 a 15.386191,15.386191 0 0 0 9.13843,14.06028 l 37.62534,16.71874 a 6.4993342,6.4993342 0 0 0 9.13843,-5.93926 v -20.75182 a 14.947415,14.947415 0 0 0 -9.24357,-13.8167 L 244.42636,164.6074 a 6.69012,6.69012 0 0 0 -1.81083,-0.46495 z m 17.70611,14.06681 c 0.21084,-0.006 0.435,0.008 0.67327,0.0418 l -6.5e-4,-6.5e-4 c 0.47655,0.0684 1.01004,0.22266 1.6084,0.47801 1.21282,0.51758 2.25948,1.27107 3.17305,2.29539 l 0.003,0.005 0.003,0.003 c 0.93182,1.02745 1.66598,2.22457 2.20723,3.61907 v 0.003 l 6.5e-4,0.002 c 0.0394,0.10086 0.0546,0.21036 0.0914,0.31215 -0.25112,-0.71511 -0.54983,-1.40823 -0.96321,-2.03614 -0.93008,-1.43514 -2.18328,-2.52096 -3.69089,-3.16717 -1.0057,-0.43149 -2.00377,-0.62062 -2.96212,-0.43948 h -0.006 l -0.005,0.001 c -0.92376,0.18242 -1.753,0.7357 -2.28167,1.51437 l -10e-4,6.5e-4 -0.002,0.001 c -0.53877,0.79979 -0.75094,1.7824 -0.75294,2.87004 -6.1e-4,0.36588 0.0437,0.7207 0.10971,1.06966 -0.13939,-0.61951 -0.22598,-1.26026 -0.22398,-1.94014 0.004,-1.49837 0.2779,-2.58555 0.71049,-3.30561 0.4548,-0.73831 0.95325,-1.09152 1.70178,-1.2512 l 0.007,-0.002 0.007,-10e-4 c 0.18467,-0.0417 0.3821,-0.0665 0.59295,-0.0725 z m 7.97866,7.51436 h 6.5e-4 c 0.1392,0.47974 0.26843,0.96387 0.35003,1.46538 l -0.0999,-0.0424 c -0.0592,-0.48518 -0.13012,-0.96489 -0.25076,-1.42294 z m -10.11993,1.07683 c 0.38774,0.75464 0.85698,1.47678 1.46017,2.13148 0.63726,0.6917 1.35566,1.35325 2.15433,1.98585 l 2.15759,1.74684 0.005,0.005 c 0.74092,0.58994 1.43366,1.23202 2.08249,1.92904 l 0.006,0.006 0.005,0.005 c 0.64047,0.67084 1.20085,1.40063 1.68415,2.19416 l 0.005,0.006 0.003,0.008 c 0.18532,0.296 0.28083,0.65005 0.43492,0.96582 -0.33284,-0.62829 -0.66871,-1.25605 -1.17218,-1.82521 -0.64897,-0.73362 -1.42248,-1.45499 -2.3202,-2.17196 l -0.006,-0.005 -2.33391,-1.88789 v 0.002 c -1.77466,-1.43735 -3.04816,-2.88857 -3.86003,-4.32825 0,-2.4e-4 -0.003,-5.6e-4 -0.003,-0.001 -0.13516,-0.24394 -0.1908,-0.51358 -0.30235,-0.76469 -2.2e-4,-4.3e-4 -4.3e-4,-8.8e-4 -6.6e-4,-0.001 z m -1.19503,10.17936 0.19656,0.0862 c 0.0899,1.02936 0.21457,2.04662 0.56682,2.96343 -0.0184,-0.0471 -0.0461,-0.0856 -0.064,-0.13322 -0.34735,-0.9218 -0.55653,-1.90349 -0.69939,-2.9164 z m 11.66564,1.85524 c 0.0609,0.16807 0.16456,0.3077 0.2168,0.48193 l 6.5e-4,0.005 0.001,0.004 c 0.27217,0.88417 0.41336,1.85339 0.41336,2.91968 0,1.49503 -0.27849,2.60333 -0.73857,3.37548 l -0.003,0.005 -6.6e-4,0.005 c -0.45179,0.77298 -0.97313,1.14858 -1.79124,1.32368 -0.77545,0.15912 -1.8327,0.0187 -3.19199,-0.58511 -1.37316,-0.60999 -2.5426,-1.45871 -3.54266,-2.569 -1.7e-4,-2.2e-4 -5.6e-4,-5.6e-4 -0.001,-0.001 -0.90708,-1.0247 -1.60517,-2.20802 -2.1491,-3.52698 0.46437,1.10197 1.06883,2.10263 1.86177,2.93143 l 0.001,0.002 6.5e-4,10e-4 c 0.83668,0.86834 1.81027,1.55315 2.89486,2.03287 1.07787,0.47676 2.12205,0.70867 3.1293,0.57727 l 0.007,-10e-4 h 0.007 c 1.00068,-0.14112 1.92003,-0.68239 2.50631,-1.49804 l 0.003,-0.005 0.003,-0.006 c 0.59782,-0.85024 0.838,-1.91125 0.83848,-3.09273 3.5e-4,-0.84307 -0.20253,-1.62388 -0.46495,-2.37832 z"
         style="display:inline;fill:#1d293d;stroke-width:9.54565;fill-opacity:1"
         id="path31"
         inkscape:label="left-with-light-s" />
      <path
         id="path53"
         style="display:inline;fill:#1d293d;stroke-width:9.54565;fill-opacity:1"
         d="m 347.50177,163.27915 a 6.5952624,6.5952624 0 0 0 -2.71985,0.53156 L 307.2663,179.881 a 15.162399,15.162399 0 0 0 -9.19263,13.93751 v 20.80472 a 6.4992412,6.4992412 0 0 0 9.13843,5.93926 l 37.62403,-16.71874 a 15.386412,15.386412 0 0 0 9.13777,-14.06028 v -19.91008 a 6.5952624,6.5952624 0 0 0 -6.47213,-6.59424 z m -26.67933,17.89158 v 6.82345 l -0.0189,4.18002 1.6293,0.37548 -1.61036,3.06987 v 7.5222 l -0.19395,0.0875 v -21.97624 z m 3.94819,7.30996 6.6491,9.86133 -0.67915,0.30692 -6.36242,-9.40813 z" />
      <path
         d="m 243.08398,43.856541 c -10.96249,-0.06755 -21.80708,2.26362 -31.77343,6.830078 L 25.667968,135.74131 c -0.502096,0.23004 -1.329941,0.56813 -1.845704,0.76562 -31.3525931,12.00493 -31.7581737,39.57338 -1.224609,48.9043 0.528168,0.1614 1.368694,0.46636 1.873047,0.6914 l 187.074218,83.47461 32.93945,14.69727 1.02344,-0.47852 192.96289,-90.25586 c 14.7655,-6.90605 31.7035,3.87115 31.70313,20.17188 v 89.49609 c -0.12335,0.42866 0.0539,0.88699 0.43359,1.1211 v 0.7207 17.49414 c -12.09225,7.58304 -13.06632,24.83857 -1.9043,33.73438 l -7.82812,10.39257 c -6.95983,8.85659 -10.81482,19.7547 -10.9707,31.01758 v 25.30078 h 16.87109 c 8.34009,8.1e-4 15.6153,-5.6616 17.66406,-13.74609 l 6.85156,-27.66406 v 41.41015 H 512 v -25.05468 c -0.17975,-11.31795 -4.06437,-22.2642 -11.05859,-31.16407 l -7.76368,-10.26953 c 11.36224,-8.84878 10.44554,-26.30638 -1.78125,-33.91601 l -0.0117,-12.39649 v -5.13867 h -1 c 0.55229,0 1,-0.44772 1,-1 V 188.56943 c -4e-5,-21.37132 -12.31876,-40.82818 -31.63671,-49.96875 L 274.76758,51.077244 c -9.90836,-4.688324 -20.72224,-7.15281 -31.6836,-7.220703 z m 0.90821,22.855469 4.24414,0.90039 155.625,69.17773 c 10.76258,4.94426 21.58768,9.75129 32.47265,14.41993 l 5.0586,5.06445 0.24609,0.24609 0.0449,0.2461 0.44922,1.91601 0.36914,2.07813 -0.36914,2.08594 -0.44336,1.91601 -0.0449,0.24609 -0.24023,0.24415 -5.06446,5.05859 -0.49023,0.20508 -159.42969,71.7832 c -20.29993,9.13956 -43.53909,9.16302 -63.85742,0.0644 L 52.568358,170.72178 c -0.504057,-0.22571 -1.316846,-0.60413 -1.785156,-0.89649 -1.491455,-0.93108 -2.72478,-2.2239 -3.583984,-3.75781 -0.269795,-0.48166 -0.632728,-0.95716 -0.853516,-1.0586 l 0.07813,-0.20507 c -1.03595,-3.01551 -1.020606,-5.29959 -0.410156,-7.33985 0.158254,-0.52892 0.513602,-1.35678 0.832031,-1.80664 1.175995,-1.66136 3.699722,-3.8456 4.703125,-4.58008 0.07522,-0.0551 0.404479,0.33889 0.755859,0.24414 9.428774,-2.54254 104.652729,-45.83079 155.624999,-69.130855 17.5802,-8.036131 33.66634,-15.47851 36.0625,-15.478515 z"
         style="display:inline;fill:#1d293d;stroke-width:9.54565;fill-opacity:1"
         id="path8"
         transform="matrix(0.33434875,0,0,0.33434875,213,82.927166)"
         inkscape:label="neural"
         inkscape:export-filename="logo-base.png"
         inkscape:export-xdpi="96"
         inkscape:export-ydpi="96" />
    </g>
  </g>
</svg>
