<?xml version="1.0" encoding="UTF-8" standalone="no"?>
<!-- Created with Inkscape (http://www.inkscape.org/) -->

<svg
   width="210mm"
   height="297mm"
   viewBox="0 0 210 297"
   version="1.1"
   id="svg1"
   xml:space="preserve"
   sodipodi:docname="workspace.svg"
   inkscape:version="1.4 (86a8ad7, 2024-10-11)"
   xmlns:inkscape="http://www.inkscape.org/namespaces/inkscape"
   xmlns:sodipodi="http://sodipodi.sourceforge.net/DTD/sodipodi-0.dtd"
   xmlns="http://www.w3.org/2000/svg"
   xmlns:svg="http://www.w3.org/2000/svg"><sodipodi:namedview
     id="namedview1"
     pagecolor="#ffffff"
     bordercolor="#000000"
     borderopacity="0.25"
     inkscape:showpageshadow="2"
     inkscape:pageopacity="0.0"
     inkscape:pagecheckerboard="0"
     inkscape:deskcolor="#d1d1d1"
     inkscape:document-units="mm"
     inkscape:zoom="1.1324627"
     inkscape:cx="422.08896"
     inkscape:cy="901.13343"
     inkscape:window-width="1366"
     inkscape:window-height="715"
     inkscape:window-x="-8"
     inkscape:window-y="-8"
     inkscape:window-maximized="1"
     inkscape:current-layer="g34" /><defs
     id="defs1"><rect
       x="0"
       y="387.34138"
       width="793.70079"
       height="735.1783"
       id="rect36" /><rect
       x="74.58126"
       y="351.25368"
       width="307.94843"
       height="399.37062"
       id="rect35" /></defs><g
     inkscape:label="Layer 1"
     inkscape:groupmode="layer"
     id="layer1"><g
       id="g34"
       inkscape:label="trial"
       transform="translate(-29.190419,49.562899)"
       style="display:inline"><path
         d="m 173.30983,162.07073 -14.36449,6.3841 14.36449,6.38463 14.3645,-6.38463 z"
         style="display:inline;fill:#4dae4a;stroke-width:2.52562"
         id="path34" /><path
         d="m 157.59451,174.83479 v 10.31669 l 14.79083,6.5722 V 180.9414 Z"
         style="display:inline;fill:#4dae4a;stroke-width:2.52562"
         id="path33" /><path
         d="m 174.23433,180.92744 v 10.79624 l 14.79031,-6.5722 v -10.55957 z"
         style="display:inline;fill:#4dae4a;stroke-width:2.52562"
         id="path30" /><path
         d="m 173.23331,157.42757 -19.31769,8.85062 c -2.88471,1.05547 -2.92001,3.57445 -0.10645,4.38216 l 19.63446,8.76122 v -2.44274 l -17.14882,-7.67912 c -0.19319,-0.0963 -0.34657,-0.2572 -0.43357,-0.45475 -0.0122,-0.005 -0.0242,-0.009 -0.0362,-0.0145 0.002,-0.006 0.005,-0.0121 0.007,-0.0181 -0.10325,-0.23283 -0.0991,-0.50665 -0.007,-0.73277 0.0838,-0.20498 0.62632,-0.62632 0.46974,-0.46974 -0.46974,0.46974 16.63929,-7.39541 16.63929,-7.39541 0.23902,-0.10622 0.51184,-0.10622 0.75086,0 l 16.5964,7.37732 0.0434,0.0181 c 0.19727,0.092 0.35575,0.25066 0.44752,0.44804 0.007,0.007 0.0146,0.0143 0.0217,0.0217 0.001,0.007 0.003,0.0145 0.004,0.0217 0.0186,0.0551 0.0319,0.11188 0.0398,0.1695 0.017,0.0601 0.0281,0.12171 0.0326,0.18397 -0.005,0.0624 -0.0156,0.12425 -0.0326,0.18449 -0.008,0.0576 -0.0209,0.11435 -0.0393,0.16949 -0.001,0.007 -0.003,0.0145 -0.004,0.0217 -0.007,0.007 -0.014,0.0146 -0.0212,0.0217 -0.092,0.19727 -0.25066,0.35575 -0.44803,0.44752 l -0.0434,0.0181 -16.83825,7.66103 v 2.44274 l 19.87476,-9.37875 v 11.10165 l 0.0382,0.0108 v 1.61127 c -1.06972,0.67082 -1.1559,2.19736 -0.16847,2.98431 l -0.69246,0.91933 c -0.61569,0.78348 -0.9567,1.74767 -0.97049,2.74402 v 2.2381 h 1.49242 c 0.73779,7e-5 1.38145,-0.50076 1.56269,-1.21594 l 0.60617,-2.4474 v 3.66334 h 1.83193 v -2.2164 c -0.0159,-1.00122 -0.35951,-1.96963 -0.97824,-2.75694 l -0.68678,-0.90847 c 1.00514,-0.78279 0.92401,-2.32716 -0.15761,-3.00033 l -0.001,-1.09658 v -13.85497 z"
         style="display:inline;fill:#4dae4a;stroke-width:2.52562"
         id="path41" /></g><path
       fill="currentColor"
       d="m 69.363333,102.42098 c 1.2492,2.79736 1.7556,5.76812 2.22921,8.74672 -0.0869,0.0247 -0.17386,0.0495 -0.26087,0.0744 -0.0626,-0.17424 -0.13641,-0.34524 -0.18612,-0.52325 -0.35879,-1.28255 -0.72059,-2.5644 -1.06397,-3.85121 -0.12356,-0.46295 -0.41495,-0.69336 -0.8317,-0.92005 -0.61201,-0.33293 -1.19041,-0.76212 -1.69763,-1.24082 -0.32365,-0.30528 -0.60061,-0.49155 -1.05977,-0.48666 -3.05699,0.0323 -6.11433,0.0354 -9.17124,0.0635 -0.20373,0.002 -0.45587,0.0773 -0.60013,0.21074 -0.55618,0.51459 -1.0775,1.06672 -1.76309,1.75718 1.80834,4.40328 2.71746,9.2026 2.32712,14.30472 -0.86814,-0.55584 -1.54018,-0.99562 -1.58013,-2.16024 -0.19968,-5.82113 -1.99537,-11.08553 -5.74681,-15.61553 -0.0844,-0.1019 -0.12638,-0.239 -0.18826,-0.3596 z m -22.71473,2.2446 c 0.87068,0 1.74178,-0.0137 2.6117,0.0118 0.17259,0.005 0.41407,0.11469 0.50036,0.25303 2.60153,4.17981 4.62976,8.56967 4.89248,13.59225 10e-4,0.0199 -0.0194,0.0408 -0.0936,0.18675 -1.55476,-5.31453 -4.35955,-9.8142 -7.96715,-13.8472 l 0.0563,-0.19666 z m -2.80052,3.6567 c 1.24383,-0.0452 2.29583,-0.0906 3.34797,-0.11015 0.10596,-0.002 0.23102,0.13814 0.31973,0.23673 2.05229,2.28292 3.91481,4.69488 5.06286,7.57956 0.21845,0.54869 0.36793,1.12489 0.54931,1.68836 -2.378,-3.74217 -5.68698,-6.54042 -9.27987,-9.39456 z"
       id="path1-76"
       style="display:inline;stroke-width:0.0687582"
       sodipodi:nodetypes="ccccssccccccsscccccccccccsccccc" /><rect
       style="fill:#4dae4a;fill-opacity:1;stroke:#000000;stroke-width:0.264583"
       id="rect4"
       width="7.3158321"
       height="5.6900916"
       x="198.50291"
       y="136.88734" /></g></svg>
